<svg xmlns="http://www.w3.org/2000/svg" viewBox="0 0 512 512" role="img" aria-label="Simple frog face">
  <defs>
    <linearGradient id="shade" x1="0%" y1="0%" x2="0%" y2="100%">
      <stop offset="0%" stop-color="#b5d844"/>
      <stop offset="100%" stop-color="#a5cb39"/>
    </linearGradient>
  </defs>
  <!-- Head -->
  <path fill="url(#shade)" d="M256 38c-54.5 0-96.7 26.2-118.8 70.3-4.9-1.4-10.1-2.1-15.4-2.1-41.4 0-74.5 40.3-74.5 90.1 0 19.6 3.7 39 10.7 56.1C68.5 321.5 78 353 78 392c0 56.2 78.4 90 178 90s178-33.8 178-90c0-39 9.5-70.5 19.9-139.6 7-17.1 10.7-36.5 10.7-56.1 0-49.8-33.1-90.1-74.5-90.1-5.3 0-10.5 0.7-15.4 2.1C352.7 64.2 310.5 38 256 38Z"/>
  <!-- Eye bumps -->
  <circle cx="148" cy="110" r="78" fill="#b5d844"/>
  <circle cx="364" cy="110" r="78" fill="#b5d844"/>
  <!-- Eyes -->
  <ellipse cx="148" cy="122" rx="34" ry="44" fill="#2d2c2c"/>
  <ellipse cx="364" cy="122" rx="34" ry="44" fill="#2d2c2c"/>
  <!-- Nose -->
  <circle cx="226" cy="210" r="12" fill="#2d2c2c"/>
  <circle cx="286" cy="210" r="12" fill="#2d2c2c"/>
  <!-- Mouth -->
  <path fill="#e76030" d="M112 244c0 58.5 63.9 104 144 104s144-45.5 144-104c0-10.2-3.1-18-13-18-74.5 0-99.8 23.9-131 23.9S199.5 226 125 226c-9.9 0-13 7.8-13 18Z"/>
</svg>
